<svg xmlns="http://www.w3.org/2000/svg" viewBox="0 0 346 47">
  <g fill="none">
    <path fill="#EE1C24" d="M208.114531 5.03696285c.384381.51250901-.128128 1.28127252.384381 1.79378153.128128.12812725.384382 0 .384382.12812725 0 .25625451-.384382.64063626-.128127.76876352.128127.12812725.384382-.12812726.512509.12812725 0 .12812725 0 .12812725-.128127.2562545.512509.25625451 0 .64063627.256254 1.02501802l.128127-.12812725c.256255.89689077-.128127 2.05003603.51251 2.94692683.128127.2562545.256254.512509.512509.6406362.384381.2562545.384381 0 .640636-.2562545.128127-.1281272.384382-.1281272.512509-.2562545.128127-.1281272.384382 0 .384382.1281273.128127.8968907 1.025018 1.025018 1.537527 1.6656543-.128128 0-.128128.2562545-.128128.3843817-.128127 1.1531453 0 2.3062906.384382 3.3313086.128127.2562545.384382.3843817.512509.512509.384382.7687635.512509 1.537527.640636 2.4344178-.128127 0-.128127.2562545-.128127.2562545-.128127.8968908.384382 1.6656543.896891 2.4344178.128127.2562545.640636.6406363 1.153145.512509.128127 0 .128127.2562545.256255.3843818.256254.1281272.640636 0 .768763.2562545s.256255.512509.384382.6406362c0 0 .128127 0 .128127-.1281272.256255.6406362.896891.7687635 1.4094 1.1531452 0-.1281272 0-.2562545.128127-.2562545.256255.2562545.896891.6406363.512509 1.1531453 0-.1281272-.128127-.1281272-.256254-.1281272-.128128 0-.128128.1281272-.128128.1281272.256255.2562545.384382.512509.640637.6406363.128127.1281272.384381.2562545.384381.6406362 0 .1281273-.128127.1281273-.256254.1281273.128127 0-.128127.2562545.128127.1281272 0 0 0-.2562545.128127-.2562545.384382.2562545.384382.7687636.512509 1.0250181.256255.6406362.256255 1.2812725.384382 2.050036 0 .1281272.128127.1281272.256255.1281272 0-.1281272 0-.1281272.128127-.2562545.256254-.1281272.128127.2562545.256254.2562545v-.8968907c0-.1281273.128128-.1281273.256255-.1281273.384382.2562545.512509.7687635.896891.8968908 0-.1281273-.128127-.3843818.128127-.3843818.128127 0 .256255.2562545.256255.3843818.128127 1.1531453-.256255 2.4344178.768763 3.3313086 0 0-.128127 0-.256254.1281272-.128128 0 0 .1281273.128127.1281273 0-.1281273.256254-.1281273.384382-.1281273.256254-.1281272.128127.2562545.256254.2562545.640636-.1281272 1.025018.512509 1.281273 1.025018.128127.3843818.640636.6406363.768763 1.1531453 0 .1281273.128127.2562545.128127.512509 0 .1281273.384382.1281273.384382.3843818.256255.8968907.640636 1.6656543.512509 2.562545-.128127.7687635-.256254 1.5375271-.128127 2.3062906.128127.512509 1.025018 1.6656543.128127 1.9219088-.640636.1281272-1.281272-.1281273-1.921909.1281272-.640636.2562545-.768763 1.025018-1.153145 1.2812725-.384382.1281273-.768763.2562545-1.153145.512509-.256255.1281273-.256255-.3843817-.256255-.512509-.128127-.2562545-.384381-.3843817-.640636-.512509-.896891-.2562545-1.665654-.6406362-2.562545-.3843817-.640636.1281272-1.153145.512509-1.665654.8968907l-15.88778-.3843817v-7.1751262h-6.02198V17.4653063c.768763.3843818 1.537527.512509 2.178163.8968908.512509.2562545.640636 1.025018 1.153145 1.1531453.512509.1281272 1.025018.512509 1.665654.512509.640637-.1281273 1.281273-.3843818 1.4094-1.1531453 0-.2562545.128127-.512509.128127-.6406363.896891-1.2812725 1.153146-2.562545 1.4094-3.9719448.128127-1.1531453-.256254-2.3062905-.128127-3.4594358.128127-.512509.128127-1.02501801.256254-1.53752702.128128-.25625451.256255-.64063627.512509-.89689077-.128127 0-.512509.12812725-.512509-.12812725 0-.51250901.256255-1.02501802.512509-1.40939978 0-.12812725.128128 0 .128128.12812725.128127-.76876351.128127-1.53752703.512509-2.17816329.128127-.38438176.256254-1.02501802.512509-.89689077.256254.12812726 1.025018 1.15314528 1.025018 1.15314528z"/>
    <path fill="#272727" d="M165.320028 22.5903964l1.665655-1.025018 2.050036 2.050036v14.3502523l-1.921909 1.7937816 8.968908 4.9969628 8.712653-7.4313806-1.025018-1.0250181-2.562545 2.0500361-2.946927-1.7937816v-15.247143s2.690672 3.7156903 6.790744 3.4594358c0 0 6.150108-.1281272 7.94389-4.7407083 0 0-6.662617 3.587563-8.456399-4.8688356l-6.53449 5.5094718-4.484453-4.7407083-8.968908 5.6375991.768763 1.025018zM45.2647929 11.8277072c-.8968908 0-1.7937816-.3843817-2.4344178-1.025018h.8968907c2.3062906-.2562545 2.1781633-1.53752702 2.1781633-1.53752702V3.49943582c2.1781633 0 3.2031813-2.81879956 3.2031813-2.81879956s-1.537527 1.02501802-3.9719448.2562545c0 0-2.8187995-1.15314527-4.4844538.25625451s-1.9219088 2.30629055-2.3062906 3.20318131c.3843818-.51250901 2.6906723-2.30629054 5.1250901-1.40939977v6.66261712s0 .89689077-1.025018.64063627c-.6406363-.89689077-.8968908-1.79378154-.8968908-2.81879956 0-1.53752703.6406363-2.9469268 1.7937816-3.71569032-2.5625451 0-4.3563266 2.17816329-4.3563266 4.74070834 0 2.94692684 2.050036 4.99696284 4.8688356 4.99696284 2.562545 0 4.6125811-1.7937815 4.9969628-4.22819932-.6406362 1.40939982-2.050036 2.56254502-3.587563 2.56254502zm18.4503243-.512509l-2.1781633-1.66565427 3.9719448-2.17816329-2.1781632-3.97194482-4.6125811 2.56254504.3843817.51250901v3.97194483l-.512509.3843818 2.8187996 2.3062905 3.9719448-2.3062905-.2562545-.5125091-1.4093998.8968908zm-2.1781633-6.02198085l1.6656543 2.81879955-1.6656543.89689077V5.29321735zm-8.3282714.38438176l-.8968908.51250901v4.22819928l1.2812726 1.0250181-2.1781633 1.537527-2.3062906-1.9219088.512509-.3843817V4.39632658c0-1.92190878-.6406362-2.30629054-.6406362-2.30629054L52.3117917.80876351v4.74070835l2.4344178-1.66565429 2.8187996 2.30629055-.6406363.2562545v3.71569028l1.5375271 1.2812726-2.1781633 1.6656542-2.4344178-1.9219087.512509-.512509V6.57448987l-1.1531453-.89689076zM139.310196 38.093794V23.7435417l2.306291-1.4093998-7.94389-6.2782353-7.046999 5.8938536 3.331309 2.1781633V37.581285l-2.178164 2.8187995 9.481417 4.9969629 5.765726-5.3813446c-.128127.1281272-3.71569-1.9219088-3.71569-1.9219088zm1.281273-27.419232l-5.637599-3.97194487-3.459436 4.99696287 5.637599 3.9719448 3.459436-4.9969628zm185.400134 27.419232V23.7435417l2.306291-1.4093998-7.94389-6.2782353-7.046999 5.8938536 3.331309 2.1781633V37.581285l-2.178164 2.8187995 9.481417 4.9969629 5.765726-5.3813446-3.71569-1.9219088zm1.281272-27.419232l-5.637599-3.97194487-3.459435 4.99696287 5.637599 3.9719448 3.459435-4.9969628zm14.734635 27.2911047V7.08699888L330.732311 10.674562s2.178164 1.1531452 2.178164 3.2031813V37.581285l-2.306291 2.8187995 9.481417 4.9969629 5.765726-5.3813446-3.843817-2.0500361zM37.192776 32.5843221c-2.9469269 2.9469268-6.7907444 5.1250901-9.9939257 5.8938536V14.774634c2.050036 1.0250181 3.4594358.6406363 3.4594358.6406363 2.1781633 0 5.6375991-2.5625451 6.2782354-5.1250901-4.8688356 3.8438176-10.634562-3.58756307-10.634562-3.58756307L16.3080338 17.2090518v18.0659426c-3.3313086-3.075054-5.5094718-7.8157624-5.5094718-13.3252342 0-7.3032534 2.9469268-12.55647077 7.6876351-15.11901582C9.13290767 7.21512614.4202545 15.6715248.4202545 26.1779595c0 11.2751982 8.20014416 19.3472151 18.5784516 19.3472151 7.3032534.1281273 15.247143-5.3813446 18.1940699-12.9408525zm-20.6284877 2.9469268l7.4313807-5.8938536V12.3402162c.6406362.7687635 1.4093997 1.2812726 1.9219087 1.7937816v24.7285597c-.3843817 0-.7687635.1281272-1.1531452.1281272-2.9469268-.1281272-5.8938536-1.4093997-8.2001442-3.4594358zm291.8738807.512509V24.896687l1.793782-1.5375271-10.762689-7.1751261c-6.150108 1.2812725-16.400289 6.9188716-18.322197 14.6065068-1.921909 7.8157624 2.050036 11.5314527 5.765726 13.709616 2.434418 1.537527 4.356327.2562545 4.356327.2562545l7.943889-4.9969628 6.918872 5.2532173 7.303253-5.2532173-4.996963-3.7156904zm-11.531452 2.6906723c-2.306291 0-8.968908-2.8187995-8.840781-8.2001441.128127-5.3813446 2.690673-8.0720169 4.868836-9.8657985l6.278235 4.1000721v12.172089c0 .1281273.256255 1.7937815-2.30629 1.7937815zm-68.676208-27.2911047l7.303254-4.99696288 6.918871 4.86883558 9.481417-4.86883558 7.046999 4.86883558 8.968908-4.74070833 8.072017 5.12509013v26.2660867l3.587563 2.0500361-5.765727 5.3813446-7.303253-3.8438176V15.9277793l-5.765727-3.3313086-1.153145.8968908v24.4723052l3.587563 2.0500361-5.765726 5.3813446-7.303253-3.8438176V15.9277793l-6.021981-3.3313086-1.153146.8968908v24.4723052l3.587563 2.0500361-5.765726 5.3813446-7.303253-3.8438176V14.262125l-5.253218-2.8187995zm-67.779316 28.0598683l-7.687635-5.3813447 14.222125-6.4063626-7.815763-12.5564707-16.656543 8.0720169 1.793782 1.4093998v12.172089l-1.793782 1.2812725 10.122053 7.1751261 13.965871-7.0469989-.768764-1.4093997-5.381344 2.6906723zm-7.431381-18.5784517l5.765727 8.9689077-5.765727 2.5625451V20.9247421zm-54.1978276 1.6656543l-.8968908-1.025018 8.9689074-5.6375991 4.484454 4.7407083 6.53449-5.5094718c1.793782 8.4563986 8.456399 4.8688356 8.456399 4.8688356-1.793782 4.6125811-7.94389 4.7407083-7.94389 4.7407083-4.100072.2562545-6.790744-3.4594358-6.790744-3.4594358v15.5033976l3.075054 1.537527 2.562545-2.0500361 1.025018 1.0250181-8.712653 7.4313806-8.968908-4.9969628 1.921909-1.7937816V23.6154144l-2.050036-2.050036-1.6656546 1.025018zM85.3686229 36.8125215V23.7435417l-2.3062906-1.9219088 7.1751262-6.0219808 6.4063626 5.8938536-2.1781633 1.7937815v12.684598l3.7156903 2.562545 1.1531453-1.1531452.8968906.6406362-6.7907442 7.1751262-8.3282714-6.7907444-7.5595079 6.4063626L66.662044 38.093794l2.5625451-1.6656543v-11.147071l-3.4594358-3.4594358 7.8157623-5.8938536 5.6375992 6.0219809v14.0939977l3.9719448 2.5625451 2.1781633-1.7937815zM54.2337005 15.4152703L36.4240124 23.871669l2.0500361 1.025018v11.6595799l-1.9219088 1.4093998 13.5814888 7.1751262L64.099499 34.3781037V23.1029054l-9.8657985-7.6876351zm0 24.0879235l-6.6626171-4.4844539v-14.734634l6.6626171 5.3813446v13.8377433z"/>
  </g>
</svg>