<svg xmlns="http://www.w3.org/2000/svg" viewBox="0 0 116 16">
  <g fill="#FFF" fill-rule="evenodd" transform="translate(0 .302)">
    <path d="M69.5815086 1.5386509C69.6985788 1.72453572 69.5523524 1.97768886 69.7099297 2.15751952 69.7355249 2.18554799 69.8247742 2.13689057 69.8336768 2.20034703 69.8470309 2.29340155 69.6934598 2.39497672 69.8120879 2.47547449 69.8606074 2.50731483 69.9391735 2.44654911 69.9810161 2.51807777 69.9985989 2.5490212 69.9734488 2.57009861 69.9480762 2.58736414 70.1308035 2.66360158 69.9627656 2.80710735 70.0537954 2.94007441L70.088961 2.9044222C70.1960156 3.22529213 70.042222 3.57934776 70.240529 3.88564288 70.2906065 3.96277723 70.3297783 4.05201988 70.4099023 4.09798658 70.5294207 4.16727295 70.5352074 4.09103551 70.6295758 4.01300425 70.668525 3.98093968 70.738411 3.97354017 70.7989491 3.93833641 70.8367855 3.91591363 70.9137936 3.95717154 70.9229188 4.00067173 70.9874632 4.30584571 71.2685651 4.35898769 71.4268101 4.56213804 71.3711684 4.57626439 71.3771777 4.64846573 71.3742843 4.67111273 71.3197555 5.05386952 71.3900866 5.42855411 71.509605 5.79292423 71.5367581 5.87342199 71.6540508 5.9122134 71.6932226 5.98194823 71.8305463 6.22815031 71.8467937 6.51516185 71.9197956 6.78513207 71.864599 6.79903419 71.8699406 6.87168399 71.8670473 6.89298563 71.824537 7.19188123 71.9965812 7.44413746 72.1485943 7.69168491 72.2089099 7.78989667 72.3693806 7.91703381 72.5240645 7.85851037 72.5641265 7.84371134 72.5765903 7.94528651 72.6257775 7.98228409 72.7103529 8.04618901 72.8534634 7.98901093 72.8868484 8.06323032 72.9233494 8.14484922 72.9787685 8.21839593 73.0188305 8.29754833 73.0297363 8.32019533 73.0644567 8.29149418 73.0815944 8.26682912 73.1721791 8.45944077 73.3678153 8.53366016 73.5387466 8.6542947 73.54164 8.6164002 73.5405272 8.54621691 73.5645644 8.56213709 73.6698385 8.63523534 73.8510079 8.79623087 73.7499625 8.93659745 73.7328249 8.9128293 73.7125713 8.88906116 73.6805217 8.90363597 73.6529234 8.91552004 73.6264379 8.94623924 73.6480269 8.96798933 73.7292638 9.04893556 73.7746674 9.14445658 73.8832801 9.19849547 73.9395895 9.22652394 74.0150396 9.30029488 73.9925604 9.39447054 73.9854382 9.42249901 73.959843 9.44088568 73.9257903 9.43079543 73.9476019 9.44895788 73.8912925 9.52990411 73.9549466 9.49223384 73.9743099 9.48079823 73.9676329 9.3933494 73.9847705 9.40837266 74.0993924 9.5088267 74.1225394 9.64672677 74.1706138 9.76377366 74.2522958 9.96288791 74.2380516 10.2079689 74.2823424 10.4528256 74.2914676 10.5073129 74.3451062 10.4862355 74.3829426 10.4895989 74.3735947 10.4552921 74.3918452 10.4301786 74.4192209 10.4216579 74.5062446 10.3943021 74.4713016 10.5066402 74.5240499 10.5248027 74.5240499 10.4301786 74.5151472 10.3366756 74.5285013 10.2427242 74.5325075 10.2158168 74.5623314 10.1916002 74.5930456 10.2097627 74.727476 10.2891393 74.7483973 10.4754726 74.9113162 10.5248027 74.9188834 10.4761453 74.8863887 10.3965444 74.9469269 10.3943021 75.002346 10.3920598 75.0346182 10.4799571 75.0395147 10.5256996 75.0760156 10.9039718 74.9578326 11.3246231 75.2863413 11.6313667 75.2992501 11.643475 75.2231323 11.6392147 75.1973145 11.6593952 75.1741676 11.6777818 75.2031013 11.7067072 75.2280288 11.7244212 75.242273 11.66814 75.303924 11.6901144 75.3410927 11.6636555 75.4112012 11.6136527 75.3876092 11.7569342 75.438577 11.7513285 75.6482349 11.7273362 75.7742077 11.926002 75.8478773 12.1029177 75.9008482 12.2298306 76.0586481 12.3192975 76.0949265 12.4677362 76.1093933 12.5260355 76.1476748 12.5762625 76.1519036 12.6403916 76.1561324 12.7000362 76.2602936 12.6982424 76.2740928 12.7495905 76.3562199 13.0505042 76.4824153 13.3195775 76.4476949 13.6269938 76.4187612 13.8893403 76.3444239 14.1649162 76.4212095 14.3945254 76.4848636 14.5833252 76.7523889 14.9566644 76.4552622 15.0192239 76.2467171 15.0633968 76.0319401 14.9842444 75.828514 15.0795412 75.6270911 15.1734926 75.5830228 15.4335968 75.4243327 15.4945868 75.3139395 15.5362932 75.1728322 15.5860717 75.0415178 15.6560308 74.9533813 15.7040155 74.9589455 15.5418989 74.9366888 15.4665583 74.9113162 15.3784368 74.8084903 15.3228283 74.7310371 15.3035447 74.4281236 15.2297738 74.173062 15.1095877 73.8570172 15.1873948 73.6469141 15.2387429 73.4897819 15.3694677 73.3121736 15.4712671L67.995275 15.3398696 67.995275 12.9408568 65.9723652 12.9408568 65.9723652 5.72700126C66.2116245 5.83889092 66.4704697 5.89988087 66.7019392 6.02589687 66.8722028 6.11939985 66.9176064 6.35775396 67.1045626 6.41156862 67.2919638 6.46560751 67.4513217 6.60574986 67.6605345 6.5680796 67.888888 6.52861551 68.0865273 6.42479806 68.1448399 6.1828563 68.1615324 6.11289724 68.1784474 6.0285876 68.2076037 5.98598433 68.4984985 5.56533305 68.5990987 5.12293167 68.6763294 4.66124671 68.7390932 4.2847683 68.5737261 3.89483622 68.6433895 3.50983716 68.6763294 3.32888535 68.6874577 3.15578152 68.7328614 2.97909004 68.7580114 2.87796332 68.8294554 2.78378766 68.8933321 2.69252696 68.8345744 2.68086712 68.7310808 2.72145235 68.7341968 2.65822012 68.7426543 2.49117043 68.8301231 2.32725994 68.9017896 2.16738555 68.9106923 2.14653236 68.946303 2.17456083 68.9634406 2.19877743 69.0193049 1.95369649 69.0121827 1.6888835 69.1187922 1.46398306 69.176437 1.34245161 69.2053707 1.12360531 69.3113125 1.16239672 69.4174769 1.20163658 69.5815086 1.5386509 69.5815086 1.5386509L69.5815086 1.5386509zM18.0946821 5.04333082L12.1269981 7.87689705 12.8073848 8.24149139 12.8073848 12.1428302 12.1748499 12.636804 16.6985205 15.046804 21.365524 11.4374097 21.365524 7.63002228 18.0946821 5.04333082 18.0946821 5.04333082zM18.0946821 13.131002L15.8745781 11.6147738 15.8745781 6.66629136 18.0946821 8.47648208 18.0946821 13.131002 18.0946821 13.131002z"/>
    <polygon points="28.503 12.226 27.787 12.848 26.45 11.978 26.45 7.224 24.54 5.201 21.938 7.205 23.084 8.334 23.084 12.096 22.249 12.66 25.901 14.989 28.419 12.813 31.213 15.106 33.481 12.708 33.182 12.472 32.776 12.86 31.547 12.026 31.547 7.77 32.275 7.17 30.15 5.18 27.727 7.205 28.503 7.84"/>
    <path d="M32.9908565 7.46386951L33.540374 7.13492738 34.2443528 7.83989946 34.2443528 12.6484638 33.6115953 13.271817 36.5957712 14.94052 39.5082805 12.4601125 39.161744 12.1078507 38.3024135 12.8132712 37.3119912 12.2255703 37.3119912 7.02819497C37.3119912 7.02819497 38.2069324 8.26346571 39.5679284 8.20426958 39.5679284 8.20426958 41.6088661 8.18094989 42.2416236 6.61696125 42.2416236 6.61696125 39.9979275 7.83989946 39.4130219 4.95969386L37.2405473 6.8055368 35.7366633 5.20656863 32.7284502 7.09927517 32.9908565 7.46386951 32.9908565 7.46386951zM53.6239131 13.1426618L51.0574952 11.3317984 55.7961652 9.1922171 53.1705445 4.99467339 47.5836723 7.7109685 48.2046337 8.19283396 48.2046337 12.296202 47.6077095 12.7428637 50.9856061 15.1405312 55.6641831 12.777619 55.4137954 12.296202 53.6239131 13.1426618 53.6239131 13.1426618zM51.1527538 6.87594432L53.0748408 9.88597779 51.1527538 10.7676414 51.1527538 6.87594432 51.1527538 6.87594432z"/>
    <path d="M55.2399708 7.46386951L55.788598 7.13492738 56.4932445 7.83989946 56.4932445 12.6484638 55.860487 13.271817 58.8444403 14.94052 61.7567271 12.4601125 61.4108583 12.1078507 60.5510827 12.8132712 59.5606603 12.2255703 59.5606603 7.02819497C59.5606603 7.02819497 60.4556015 8.26346571 61.816375 8.20426958 61.816375 8.20426958 63.8573127 8.18094989 64.4900702 6.61696125 64.4900702 6.61696125 62.2463741 7.83989946 61.6610234 4.95969386L59.4887713 6.8055368 57.9848873 5.20656863 54.9768968 7.09927517 55.2399708 7.46386951 55.2399708 7.46386951zM15.089585 3.81994415C14.7773237 3.81994415 14.4924382 3.68563172 14.2723196 3.46431892 14.3495503 3.46700965 14.4770811 3.46880348 14.5810198 3.458489 15.3433111 3.38225156 15.3128195 2.92998416 15.3128195 2.92998416L15.3128195 1.03727763C16.0415032 1.03727763 16.375576.101799404 16.375576.101799404 16.375576.101799404 15.8743555.41078526 15.0521937.169964643 15.0521937.169964643 14.1029463-.199786936 13.5416328.267952175 12.9910025.726722176 12.8772708 1.04422869 12.7766706 1.33527632 12.9064271 1.15768793 13.6620414.554963711 14.4904351.856101595L14.4904351 3.09277352C14.4904351 3.09277352 14.5004506 3.41341922 14.1294317 3.29233623L14.1332153 3.30040843C13.9440336 3.04097691 13.8294116 2.70418681 13.8294116 2.33465946 13.8294116 1.80951804 14.0597683 1.34895422 14.4087531 1.08436546L14.4029663 1.08279586C13.5287239 1.09490416 12.9469342 1.81848715 12.9469342 2.67997021 12.9469342 3.69168587 13.6506905 4.34351597 14.58191 4.34351597 15.4307799 4.34351597 16.1336459 3.72442312 16.2511612 2.91966969L16.2482678 2.92079083C16.0548572 3.44951989 15.6088333 3.81994415 15.089585 3.81994415L15.089585 3.81994415zM21.2377707 3.64661609L20.5197701 3.06609042 21.8464909 2.37995346 21.110685 1.03346575 19.5469306 1.90436638 19.7207552 2.05885931 19.7207552 3.37485204 19.553385 3.51835781 20.499294 4.28678635 21.8095448 3.53001765 21.7396588 3.37507627 21.2377707 3.64661609 21.2377707 3.64661609zM20.546033 1.63708689L21.0841996 2.60149049 20.546033 2.88491438 20.546033 1.63708689 20.546033 1.63708689zM17.7539323 1.76287866L17.4717176 1.95661145 17.4717176 3.36767675 17.9199671 3.71410865 17.1712524 4.23521397 16.38893 3.59347411 16.5696543 3.45064103 16.5696543 1.33124022C16.5696543.675149791 16.3586609.543079639 16.3586609.543079639L17.4717176.113459247 17.4717176 1.70188871 18.2907635 1.12719296 19.2297729 1.89651841 19.0058706 2.03621231 19.0058706 3.28852435 19.5006367 3.69953384 18.7819684 4.2419408 17.9667062 3.59324988 18.1440919 3.42059451 18.1440919 2.08173054 17.7539323 1.76287866 17.7539323 1.76287866zM46.5416145 12.656536L46.5416145 7.83676028 47.2936677 7.36655466 44.6199726 5.25814101 42.2685542 7.23717524 43.367144 7.97757531 43.367144 12.5159452 42.6264416 13.4561322 45.8020249 15.149276 47.7354629 13.3384126 46.5416145 12.656536 46.5416145 12.656536zM46.9624883 3.46230087L45.0675545 2.14092667 43.9142132 3.8033513 45.808702 5.1247255 46.9624883 3.46230087 46.9624883 3.46230087zM109.009443 12.656536L109.009443 7.83676028 109.761718 7.36655466 107.088023 5.25814101 104.736382 7.23717524 105.834972 7.97757531 105.834972 12.5159452 105.09427 13.4561322 108.269853 15.149276 110.203514 13.3384126 109.009443 12.656536 109.009443 12.656536zM109.430762 3.46230087L107.535383 2.14092667 106.382486 3.8033513 108.27653 5.1247255 109.430762 3.46230087 109.430762 3.46230087zM114.357501 12.6107936L114.357501 2.22703013 110.573642 3.44346574C110.573642 3.44346574 111.28964 3.83182822 111.28964 4.51863786L111.28964 12.4903832 110.530687 13.4561322 113.706493 15.149276 115.639931 13.3384126 114.357501 12.6107936 114.357501 12.6107936zM12.3929654 10.8180926C11.3878537 11.8210634 10.1105427 12.5352288 9.06403356 12.7930907L9.06403356 4.82358761C9.76378363 5.18235203 10.2169297 5.05409375 10.2169297 5.05409375 10.9571869 5.05409375 12.1031834 4.17243019 12.3061644 3.34951431 10.6707434 4.64241158 8.73708291 2.12635187 8.73708291 2.12635187L5.39501961 5.65345456 5.39501961 11.7188155C4.28018243 10.6862467 3.56218188 9.07135833 3.56218188 7.25533769 3.56218188 4.8146185 4.53012496 3.02303868 6.13705737 2.1694036L6.13505427 2.16850668C2.97883426 2.26514885.095258597 5.14131835.095258597 8.67402674.095258597 12.4484527 2.83082733 15.1822375 6.29886344 15.1822375 8.73686034 15.1822375 11.3960887 13.3608354 12.4025358 10.8205591L12.3929654 10.8180926 12.3929654 10.8180926zM5.48515917 11.8011071L7.98502964 9.81557027 7.98502964 3.9843031C8.21805709 4.22871136 8.44017878 4.41908073 8.64805618 4.56774374L8.64805618 12.8729158C8.52141566 12.8897329 8.39855878 12.9002716 8.28349174 12.9002716 7.2360923 12.9000474 6.26814922 12.4915044 5.48515917 11.8011071L5.48515917 11.8011071zM103.122773 11.9688295L103.122773 8.23005577 103.703672 7.72688867 100.096754 5.29469014C98.0393468 5.71422028 94.6018023 7.60737528 93.9721608 10.2194045 93.3427419 12.8316579 94.6741366 14.0736555 95.9087147 14.8441021 96.7437854 15.3661043 97.3854455 14.9158549 97.3854455 14.9158549L100.060253 13.2267472 102.384296 15.0118244 104.817174 13.2507396 103.122773 11.9688295 103.122773 11.9688295zM99.2979621 12.8791942C98.5334451 12.8791942 96.2959809 11.9446129 96.3204633 10.1232108 96.3445005 8.30248134 97.2036084 7.39144394 97.9541037 6.81652396L100.072495 8.20628763 100.072495 12.30405C100.072495 12.3042742 100.145274 12.8791942 99.2979621 12.8791942L99.2979621 12.8791942z"/>
    <polygon points="76.314 3.691 78.775 2.016 81.102 3.642 84.256 2.018 86.599 3.642 89.585 2.058 92.296 3.771 92.292 12.576 93.485 13.258 91.552 15.068 89.117 13.763 89.123 5.174 87.214 4.043 86.827 4.346 86.813 12.576 88.007 13.258 86.073 15.068 83.638 13.763 83.639 5.174 81.638 4.051 81.232 4.346 81.225 12.576 82.418 13.258 80.485 15.068 78.05 13.763 78.051 4.592"/>
  </g>
</svg>
